<svg id="visual" viewBox="0 0 960 540" width="960" height="540" xmlns="http://www.w3.org/2000/svg" xmlns:xlink="http://www.w3.org/1999/xlink" version="1.1"><path d="M0 351L22.8 350.7C45.7 350.3 91.3 349.7 137 340C182.7 330.3 228.3 311.7 274 307.2C319.7 302.7 365.3 312.3 411.2 309.2C457 306 503 290 548.8 295C594.7 300 640.3 326 686 333.8C731.7 341.7 777.3 331.3 823 321.5C868.7 311.7 914.3 302.3 937.2 297.7L960 293L960 541L937.2 541C914.3 541 868.7 541 823 541C777.3 541 731.7 541 686 541C640.3 541 594.7 541 548.8 541C503 541 457 541 411.2 541C365.3 541 319.7 541 274 541C228.3 541 182.7 541 137 541C91.3 541 45.7 541 22.8 541L0 541Z" fill="#f1f7ee"></path><path d="M0 340L22.8 346.7C45.7 353.3 91.3 366.7 137 372C182.7 377.3 228.3 374.7 274 363.5C319.7 352.3 365.3 332.7 411.2 332.2C457 331.7 503 350.3 548.8 353.8C594.7 357.3 640.3 345.7 686 344.2C731.7 342.7 777.3 351.3 823 352.3C868.7 353.3 914.3 346.7 937.2 343.3L960 340L960 541L937.2 541C914.3 541 868.7 541 823 541C777.3 541 731.7 541 686 541C640.3 541 594.7 541 548.8 541C503 541 457 541 411.2 541C365.3 541 319.7 541 274 541C228.3 541 182.7 541 137 541C91.3 541 45.7 541 22.8 541L0 541Z" fill="#b7c6b0"></path><path d="M0 384L22.8 382.2C45.7 380.3 91.3 376.7 137 384.8C182.7 393 228.3 413 274 412C319.7 411 365.3 389 411.2 385.8C457 382.7 503 398.3 548.8 405.5C594.7 412.7 640.3 411.3 686 414C731.7 416.7 777.3 423.3 823 424.2C868.7 425 914.3 420 937.2 417.5L960 415L960 541L937.2 541C914.3 541 868.7 541 823 541C777.3 541 731.7 541 686 541C640.3 541 594.7 541 548.8 541C503 541 457 541 411.2 541C365.3 541 319.7 541 274 541C228.3 541 182.7 541 137 541C91.3 541 45.7 541 22.8 541L0 541Z" fill="#809776"></path><path d="M0 412L22.8 421.2C45.7 430.3 91.3 448.7 137 449.2C182.7 449.7 228.3 432.3 274 430.3C319.7 428.3 365.3 441.7 411.2 446.7C457 451.7 503 448.3 548.8 441.2C594.7 434 640.3 423 686 425.8C731.7 428.7 777.3 445.3 823 451.3C868.7 457.3 914.3 452.7 937.2 450.3L960 448L960 541L937.2 541C914.3 541 868.7 541 823 541C777.3 541 731.7 541 686 541C640.3 541 594.7 541 548.8 541C503 541 457 541 411.2 541C365.3 541 319.7 541 274 541C228.3 541 182.7 541 137 541C91.3 541 45.7 541 22.8 541L0 541Z" fill="#4b6a40"></path><path d="M0 504L22.8 496.3C45.7 488.7 91.3 473.3 137 468.7C182.7 464 228.3 470 274 471C319.7 472 365.3 468 411.2 473.2C457 478.3 503 492.7 548.8 500.3C594.7 508 640.3 509 686 506.5C731.7 504 777.3 498 823 492C868.7 486 914.3 480 937.2 477L960 474L960 541L937.2 541C914.3 541 868.7 541 823 541C777.3 541 731.7 541 686 541C640.3 541 594.7 541 548.8 541C503 541 457 541 411.2 541C365.3 541 319.7 541 274 541C228.3 541 182.7 541 137 541C91.3 541 45.7 541 22.8 541L0 541Z" fill="#15400e"></path></svg>